<svg id="Component_67_13" data-name="Component 67 – 13" xmlns="http://www.w3.org/2000/svg" width="196.493" height="51.279" viewBox="0 0 196.493 51.279">
  <text id="Smart_Rem" data-name="Smart Rem" transform="translate(131.493 33.487)" fill="#1230c2" font-size="24" font-family="Manrope-ExtraBold, Manrope" font-weight="800"><tspan x="-64.86" y="0">Smart Rem</tspan></text>
  <g id="Group_7475" data-name="Group 7475" transform="translate(4 3)">
    <path id="Path_5180" data-name="Path 5180" d="M58.2,7129.436l-13.092,13.092a2.465,2.465,0,0,0,0,3.487l16.4,16.4a2.47,2.47,0,0,0,3.488,0l14.009-14.01a2.466,2.466,0,0,0,0-3.488l-7.287-7.287a2.469,2.469,0,0,1,0-3.49l1.167-1.167a2.466,2.466,0,0,0-1.731-4.209l-11.2-.058A2.46,2.46,0,0,0,58.2,7129.436Z" transform="translate(-48.385 -7114.861)" fill="#0e7fff"/>
    <path id="Path_5181" data-name="Path 5181" d="M158.917,7109.257l13.092-13.095a2.463,2.463,0,0,0,0-3.485l-16.4-16.4a2.465,2.465,0,0,0-3.488,0l-14.009,14.01a2.467,2.467,0,0,0,0,3.488l7.287,7.286a2.468,2.468,0,0,1,0,3.489l-1.167,1.165a2.467,2.467,0,0,0,1.731,4.211l11.2.058A2.473,2.473,0,0,0,158.917,7109.257Z" transform="translate(-117.902 -7078.55)" fill="#4cd3fe"/>
    <path id="Path_5182" data-name="Path 5182" d="M156.525,7145.084l-7.287-7.288a2.467,2.467,0,0,1,0-3.489l1.167-1.167a2.467,2.467,0,0,0-1.731-4.21l-4.718-.025-5.848,5.849a2.467,2.467,0,0,0,0,3.489l7.287,7.286a2.469,2.469,0,0,1,0,3.49l-1.167,1.165a2.467,2.467,0,0,0,1.731,4.211l4.718.024,5.848-5.847A2.466,2.466,0,0,0,156.525,7145.084Z" transform="translate(-121.902 -7120.023)" fill="#1230c2"/>
  </g>
</svg>
